<svg version="1.1" id="Layer_1" xmlns="http://www.w3.org/2000/svg" xmlns:xlink="http://www.w3.org/1999/xlink" style="display:none;">

	<symbol id="rss">
		<g>
			<ellipse cx="3.426" cy="21.789" rx="3.426" ry="3.463"/><path d="M16.558 25.253h-4.853c0-6.536-5.24-11.833-11.705-11.833V8.514c9.145 0 16.558 7.494 16.558 16.74z"/><path d="M19.984 25.253C19.984 14.095 11.037 5.05 0 5.05V0c13.796 0 24.98 11.306 24.98 25.253h-4.996z"/>
		</g>
	</symbol>

	<symbol viewBox="0 0 26 26" id="website">
		<path d="M15.834 19.556l-4.64 4.64c-2.335 2.336-6.127 2.347-8.476.034l-.016-.017-.017-.016c-2.312-2.348-2.302-6.14.033-8.475l5.115-5.115c2.335-2.335 6.127-2.345 8.476-.033l.015.017.017.017c.28.286.527.592.74.914l-1.39 1.39c-.396.397-1 .46-1.464.195-.06-.077-.126-.152-.197-.223-1.082-1.064-2.828-1.058-3.904.017L5.01 18.012c-1.077 1.077-1.082 2.824-.016 3.907 1.083 1.066 2.83 1.06 3.907-.016l2.908-2.907c1.274.554 2.67.74 4.026.56zM24.2 2.68v.002C21.85.37 18.06.38 15.723 2.715l-4.64 4.64c1.355-.18 2.75.007 4.025.56l2.906-2.908c1.077-1.077 2.824-1.082 3.907-.016 1.066 1.084 1.06 2.832-.016 3.908l-5.115 5.115c-1.075 1.075-2.82 1.08-3.905.017-.07-.07-.136-.146-.197-.223-.464-.265-1.067-.202-1.463.195l-1.39 1.39c.213.32.46.628.74.913l.017.016.015.018c2.348 2.313 6.14 2.302 8.475-.033L24.2 11.19c2.335-2.335 2.345-6.126.033-8.475l-.017-.017-.016-.017z" fill-rule="evenodd"/>
	</symbol>

	<symbol viewBox="0 0 25 49" id="facebook">
		<path d="M16.227 48.14V26.18h7.37l1.104-8.557h-8.473V12.16c0-2.478.688-4.167 4.24-4.167L25 7.99V.338C24.216.233 21.526 0 18.397 0 11.863 0 7.39 3.988 7.39 11.312v6.31H0v8.56h7.39V48.14h8.837l-3.544-30.248"/>
	</symbol>

	<symbol viewBox="0 0 25 24" id="snapchat">
		<g>
			<path d="M12.654 23.154c-.063 0-.125-.002-.186-.005-.04.002-.08.004-.122.004-1.442 0-2.368-.655-3.263-1.287-.618-.437-1.202-.85-1.89-.964-.334-.056-.668-.084-.99-.084-.582 0-1.04.09-1.375.154-.203.04-.38.074-.512.074-.14 0-.29-.03-.356-.254-.057-.194-.098-.382-.138-.564-.102-.468-.175-.757-.37-.787-2.29-.353-2.943-.835-3.09-1.177-.02-.05-.032-.097-.035-.146-.007-.13.086-.247.216-.268 3.516-.58 5.093-4.174 5.16-4.326l.004-.013c.216-.436.258-.815.126-1.125-.24-.57-1.028-.82-1.55-.984-.127-.04-.248-.078-.343-.116-1.04-.41-1.126-.833-1.085-1.048.07-.366.56-.622.955-.622.108 0 .204.02.285.057.467.22.89.33 1.252.33.503 0 .722-.21.75-.24l-.046-.742c-.104-1.662-.233-3.728.293-4.907C7.92.58 11.263.306 12.25.306l.432-.004h.058c.99 0 4.34.275 5.917 3.81.527 1.18.396 3.25.292 4.91l-.006.072-.04.672c.025.026.227.22.682.237.347-.013.745-.123 1.182-.328.128-.06.27-.072.366-.072.148 0 .298.028.422.08l.008.003c.353.125.585.373.59.632.004.243-.182.61-1.094.97-.095.037-.216.076-.343.116-.522.166-1.31.415-1.55.984-.132.31-.09.69.126 1.125 0 .004.004.008.005.013.066.152 1.64 3.745 5.16 4.325.13.023.222.138.215.27-.003.05-.015.1-.036.147-.145.34-.8.82-3.088 1.174-.188.03-.26.274-.372.784-.04.186-.08.37-.138.56-.05.168-.152.246-.327.246h-.03c-.12 0-.292-.022-.51-.065-.388-.076-.823-.146-1.375-.146-.323 0-.657.028-.992.083-.687.115-1.27.526-1.887.962-.898.635-1.824 1.29-3.266 1.29"/><path d="M12.74.044h-.06l-.43.004c-1.027 0-4.503.286-6.143 3.963-.55 1.238-.42 3.34-.313 5.027.012.198.026.405.037.605-.084.047-.24.105-.483.105-.325 0-.71-.102-1.143-.305-.115-.054-.248-.08-.394-.08-.507 0-1.114.333-1.21.83-.067.358.094.88 1.245 1.335.104.042.23.08.36.123.477.15 1.196.38 1.39.84.102.237.062.543-.12.91l-.01.024C5.4 13.57 3.88 17.04.5 17.597c-.26.043-.445.275-.43.537.004.08.023.157.055.232.253.593 1.323 1.027 3.27 1.33.066.088.134.4.175.588.04.187.083.38.143.583.058.2.21.44.603.44.158 0 .345-.037.56-.08.326-.063.77-.15 1.326-.15.31 0 .63.027.95.08.63.105 1.163.482 1.78.92.887.626 1.89 1.335 3.414 1.335.042 0 .084-.002.126-.005.05.002.113.005.182.005 1.525 0 2.527-.71 3.412-1.335.62-.438 1.154-.815 1.782-.92.32-.053.64-.08.95-.08.53 0 .95.068 1.325.14.235.047.423.07.56.07H20.713c.29 0 .494-.153.575-.43.058-.2.1-.387.142-.578.04-.19.11-.5.174-.587 1.948-.302 3.018-.736 3.27-1.326.033-.076.052-.154.056-.233.015-.263-.17-.494-.43-.537-3.38-.557-4.902-4.026-4.965-4.173l-.01-.025c-.182-.367-.222-.673-.12-.91.194-.46.913-.69 1.39-.84.132-.042.257-.082.36-.123.843-.332 1.265-.74 1.256-1.214-.006-.372-.295-.704-.755-.868h-.002c-.155-.065-.338-.1-.518-.1-.123 0-.306.017-.476.097-.402.187-.762.29-1.073.304-.206-.01-.34-.062-.418-.104l.032-.532.004-.072c.107-1.69.24-3.792-.313-5.03C17.253.33 13.77.044 12.74.044zm0 .515c.937 0 4.162.25 5.682 3.66.5 1.12.373 3.153.27 4.786-.017.26-.033.51-.046.75l-.005.103.07.076c.028.03.288.303.866.325h.02c.382-.014.813-.132 1.28-.35.07-.034.162-.05.26-.05.11 0 .227.02.324.062l.014.006c.246.086.42.248.422.395 0 .083-.06.382-.93.725-.086.034-.198.07-.327.11-.567.18-1.422.45-1.71 1.13-.162.382-.118.832.13 1.34.104.24 1.72 3.878 5.356 4.478 0 .016-.006.036-.015.058-.06.145-.453.646-2.89 1.022-.38.06-.475.486-.583.983-.04.177-.08.356-.134.542-.016.056-.02.06-.08.06h-.028c-.108 0-.273-.023-.463-.06-.346-.068-.82-.15-1.424-.15-.338 0-.685.03-1.034.087-.746.123-1.353.552-1.995 1.006-.864.61-1.755 1.24-3.116 1.24-.06 0-.117-.002-.175-.005h-.017l-.015.002c-.034.003-.067.004-.102.004-1.36 0-2.252-.63-3.114-1.24-.642-.454-1.25-.883-1.995-1.007-.35-.06-.697-.09-1.034-.09-.605 0-1.08.094-1.424.16-.19.04-.356.07-.464.07-.088 0-.09-.005-.108-.068-.055-.186-.095-.37-.134-.548-.108-.497-.202-.927-.583-.986C1.054 18.812.663 18.31.6 18.165c-.01-.023-.014-.042-.015-.06 3.636-.598 5.25-4.238 5.354-4.478.25-.507.293-.957.13-1.34-.287-.678-1.142-.95-1.708-1.13-.13-.04-.242-.075-.327-.11-.735-.29-.96-.582-.926-.76.038-.203.392-.41.7-.41.07 0 .13.01.176.03.502.236.96.356 1.362.356.632 0 .913-.294.943-.328l.07-.076-.006-.104c-.013-.24-.028-.49-.045-.75-.104-1.632-.232-3.663.27-4.785C8.092.826 11.3.565 12.25.565l.435-.004h.056z"/>
		</g>	
	</symbol>

	<symbol viewBox="0 0 25 26" id="instagram">
		<path d="M22.116 25.613H2.884C1.292 25.613 0 24.323 0 22.728V3.498C0 1.905 1.292.614 2.884.614h19.232C23.71.614 25 1.904 25 3.498v19.23c0 1.594-1.29 2.885-2.884 2.885zM12.5 8.306c-2.655 0-4.808 2.152-4.808 4.807 0 2.655 2.153 4.808 4.808 4.808 2.656 0 4.808-2.152 4.808-4.807 0-2.655-2.152-4.807-4.808-4.807zm9.616-3.847c0-.532-.43-.962-.962-.962H18.27c-.53 0-.962.43-.962.96v2.886c0 .53.43.962.962.962h2.884c.532 0 .962-.43.962-.962V4.46zm0 6.73H19.94c.158.615.252 1.258.252 1.923 0 4.25-3.444 7.693-7.692 7.693s-7.692-3.444-7.692-7.693c0-.665.094-1.308.253-1.924H2.885v10.577c0 .53.43.96.963.96h17.307c.532 0 .962-.43.962-.96V11.19z"/>
	</symbol>

	<symbol viewBox="0 0 25 25" id="dribbble">
		<path d="M0 12.5c0-2.267.558-4.358 1.675-6.275 1.117-1.917 2.633-3.433 4.55-4.55C8.142.558 10.233 0 12.5 0c2.267 0 4.358.558 6.275 1.675 1.917 1.117 3.433 2.633 4.55 4.55C24.442 8.142 25 10.233 25 12.5c0 2.267-.558 4.358-1.675 6.275-1.117 1.917-2.633 3.433-4.55 4.55C16.858 24.442 14.767 25 12.5 25c-2.267 0-4.358-.558-6.275-1.675-1.917-1.117-3.433-2.633-4.55-4.55C.558 16.858 0 14.767 0 12.5zm2.075 0c0 2.6.875 4.892 2.625 6.875.8-1.567 2.067-3.058 3.8-4.475 1.733-1.417 3.425-2.308 5.075-2.675-.25-.583-.492-1.108-.725-1.575-2.867.917-5.967 1.375-9.3 1.375-.65 0-1.133-.008-1.45-.025 0 .067-.004.15-.013.25-.008.1-.012.183-.012.25zM2.4 9.925c.367.033.908.05 1.625.05 2.783 0 5.425-.375 7.925-1.125-1.267-2.25-2.658-4.125-4.175-5.625C6.458 3.892 5.33 4.817 4.387 6 3.448 7.183 2.784 8.492 2.4 9.925zm3.725 10.8c1.883 1.467 4.008 2.2 6.375 2.2 1.233 0 2.458-.233 3.675-.7-.333-2.85-.983-5.608-1.95-8.275-1.533.333-3.08 1.175-4.637 2.525-1.56 1.35-2.713 2.767-3.463 4.25zm3.825-18.3c1.467 1.517 2.825 3.408 4.075 5.675C16.292 7.15 18 5.942 19.15 4.475c-1.933-1.6-4.15-2.4-6.65-2.4-.85 0-1.7.117-2.55.35zm4.975 7.45c.25.533.533 1.208.85 2.025 1.233-.117 2.575-.175 4.025-.175 1.033 0 2.058.025 3.075.075-.133-2.267-.95-4.283-2.45-6.05-1.083 1.617-2.917 2.992-5.5 4.125zM16.4 13.65c.85 2.467 1.425 5 1.725 7.6 1.317-.85 2.392-1.942 3.225-3.275.833-1.333 1.333-2.775 1.5-4.325-1.217-.083-2.325-.125-3.325-.125-.917 0-1.958.042-3.125.125z"/>
	</symbol>

	<symbol viewBox="0 0 25 22" id="twitter">
		<path d="M25 3.227c-.92.408-1.908.684-2.946.808 1.06-.635 1.872-1.64 2.255-2.838-.992.588-2.09 1.015-3.258 1.245-.935-.997-2.268-1.62-3.743-1.62-2.834 0-5.13 2.296-5.13 5.13 0 .4.045.792.132 1.168C8.05 6.906 4.27 4.864 1.74 1.76c-.44.758-.694 1.64-.694 2.58 0 1.78.906 3.35 2.282 4.268-.84-.026-1.632-.257-2.323-.64v.063c0 2.487 1.767 4.56 4.114 5.03-.432.118-.885.18-1.353.18-.33 0-.652-.03-.965-.09.653 2.036 2.547 3.52 4.79 3.56-1.754 1.376-3.965 2.196-6.368 2.196-.414 0-.823-.024-1.224-.07 2.27 1.454 4.966 2.303 7.862 2.303 9.435 0 14.593-7.817 14.593-14.594 0-.223-.004-.444-.014-.664 1.003-.723 1.872-1.626 2.56-2.655"/>  	
	</symbol>

	<symbol viewBox="0 0 33 33" id="github">
		<path d="M16.608.455C7.614.455.32 7.748.32 16.745c0 7.197 4.667 13.302 11.14 15.456.815.15 1.112-.352 1.112-.784 0-.386-.014-1.41-.022-2.77-4.53.984-5.487-2.184-5.487-2.184-.74-1.882-1.81-2.383-1.81-2.383-1.478-1.01.113-.99.113-.99C7 23.203 7.86 24.767 7.86 24.767c1.454 2.49 3.814 1.77 4.742 1.353.148-1.05.57-1.77 1.034-2.176-3.617-.41-7.42-1.81-7.42-8.05 0-1.78.635-3.234 1.677-4.372-.168-.412-.727-2.07.16-4.31 0 0 1.367-.44 4.48 1.67 1.298-.363 2.692-.543 4.077-.55 1.384.007 2.777.187 4.078.55 3.11-2.11 4.475-1.67 4.475-1.67.89 2.24.33 3.898.163 4.31C26.37 12.66 27 14.115 27 15.892c0 6.26-3.81 7.636-7.437 8.04.584.502 1.105 1.496 1.105 3.016 0 2.177-.02 3.934-.02 4.468 0 .436.294.943 1.12.784 6.468-2.16 11.13-8.26 11.13-15.455 0-8.997-7.293-16.29-16.29-16.29" fill-rule="evenodd"/>
	</symbol>
</svg>